<?xml version="1.0" encoding="utf-8"?>

<!DOCTYPE svg PUBLIC "-//W3C//DTD SVG 1.1//EN" "http://www.w3.org/Graphics/SVG/1.1/DTD/svg11.dtd">
<!-- Uploaded to: SVG Repo, www.svgrepo.com, Generator: SVG Repo Mixer Tools -->
<svg height="800px" width="800px" version="1.1" id="_x32_" xmlns="http://www.w3.org/2000/svg" xmlns:xlink="http://www.w3.org/1999/xlink" 
	 viewBox="0 0 512 512"  xml:space="preserve">
<style type="text/css">
	.st0{fill:#000000;}
</style>
<g>
	<path class="st0" d="M461.038,280.543c-0.008-108.556-84.384-197.136-191.116-204.324V47.096h-27.856v29.124
		c-106.723,7.196-191.09,95.783-191.099,204.324c0.008,65.74,31.039,124.076,79.137,161.606l-27.397,46.502L137.489,512
		l34.026-44.783c25.784,11.696,54.331,18.374,84.491,18.374c29.362,0,57.227-6.284,82.468-17.403L371.759,512l34.815-23.349
		l-26.59-45.071C429.159,406.117,461.029,347.138,461.038,280.543z M413.286,280.543c-0.017,43.508-17.56,82.682-46.058,111.222
		c-28.539,28.506-67.713,46.066-111.221,46.074c-43.508-0.008-82.682-17.568-111.222-46.074
		c-28.506-28.54-46.057-67.714-46.066-111.222c0.008-43.508,17.56-82.682,46.066-111.213c28.54-28.498,67.714-46.05,111.222-46.058
		c43.508,0.008,82.682,17.559,111.221,46.058C395.726,197.861,413.269,237.035,413.286,280.543z"/>
	<path class="st0" d="M345.877,268.198l-75.165-1.596l-2.977-102.396c0-6.472-5.256-11.72-11.728-11.72
		c-6.465,0-11.72,5.248-11.72,11.72l-3.422,117.226c0,8.372,6.777,15.149,15.142,15.149l89.87-1.892
		c7.32,0,13.25-5.938,13.25-13.258C359.127,274.128,353.197,268.198,345.877,268.198z"/>
	<path class="st0" d="M81.398,11.401c-40.4,23.39-54.192,75.099-30.785,115.506l146.291-84.722
		C173.521,1.786,121.814-12.007,81.398,11.401z"/>
	<path class="st0" d="M430.598,11.401c-40.407-23.408-92.123-9.615-115.506,30.784l146.291,84.722
		C484.799,86.5,470.998,34.791,430.598,11.401z"/>
</g>
</svg>