<?xml version="1.0" encoding="iso-8859-1"?>
<!-- Uploaded to: SVG Repo, www.svgrepo.com, Generator: SVG Repo Mixer Tools -->
<svg fill="#c0c0c0" height="800px" width="800px" version="1.1" id="Layer_1" xmlns="http://www.w3.org/2000/svg" xmlns:xlink="http://www.w3.org/1999/xlink" 
	 viewBox="0 0 511.999 511.999" xml:space="preserve">
<g>
	<g>
		<path d="M340.677,275.629h-65.131v-65.131c0-10.795-8.752-19.547-19.547-19.547c-10.795,0-19.547,8.752-19.547,19.547v84.679
			c0,10.795,8.752,19.547,19.547,19.547h84.678c10.795,0,19.547-8.752,19.547-19.547
			C360.224,284.381,351.472,275.629,340.677,275.629z"/>
	</g>
</g>
<g>
	<g>
		<path d="M275.544,113.701V73.559h19.547c10.795,0,19.547-8.752,19.547-19.547s-8.752-19.547-19.547-19.547h-78.188
			c-10.795,0-19.547,8.752-19.547,19.547s8.752,19.547,19.547,19.547h19.546V113.7c-91.44,9.785-162.893,87.397-162.893,181.392
			c0,100.599,81.843,182.443,182.441,182.443c100.598-0.001,182.441-81.844,182.442-182.441
			C438.437,201.098,366.983,123.486,275.544,113.701z M255.997,438.44c-79.041,0-143.346-64.306-143.346-143.349
			c0-79.041,64.305-143.346,143.346-143.346s143.346,64.306,143.347,143.349C399.343,374.135,335.039,438.439,255.997,438.44z"/>
	</g>
</g>
<g>
	<g>
		<path d="M511.62,244.248c-13.581-68.28-52.938-127.183-110.821-165.861c-8.977-5.997-21.115-3.584-27.113,5.394
			c-5.998,8.976-3.584,21.115,5.392,27.113c49.202,32.876,82.655,82.944,94.198,140.981c1.851,9.302,10.016,15.738,19.151,15.738
			c1.264,0,2.546-0.124,3.833-0.379C506.849,265.127,513.725,254.836,511.62,244.248z"/>
	</g>
</g>
<g>
	<g>
		<path d="M138.313,83.781c-5.998-8.976-18.139-11.391-27.113-5.394C53.317,117.064,13.959,175.968,0.379,244.248
			c-2.106,10.588,4.771,20.879,15.359,22.985c1.287,0.255,2.57,0.379,3.834,0.379c9.135,0,17.301-6.436,19.151-15.738
			c11.542-58.037,44.996-108.105,94.197-140.98C141.896,104.896,144.311,92.757,138.313,83.781z"/>
	</g>
</g>
</svg>